<?xml version="1.0" encoding="UTF-8"?>
<svg width="100%" height="100%" viewBox="0 0 256 153" xmlns="http://www.w3.org/2000/svg" preserveAspectRatio="xMidYMid">
  <g fill="currentColor">
    <path d="M72.392 55.438c0 3.137.34 5.68.933 7.545a45.373 45.373 0 0 0 2.712 6.103c.424.678.593 1.356.593 1.95 0 .847-.508 1.695-1.61 2.543l-5.34 3.56c-.762.509-1.526.763-2.205.763-.847 0-1.695-.424-2.543-1.187a26.224 26.224 0 0 1-3.051-3.984c-.847-1.44-1.695-3.052-2.627-5.086-6.612 7.798-14.92 11.697-24.916 11.697-7.12 0-12.8-2.035-16.954-6.103-4.153-4.07-6.272-9.495-6.272-16.276 0-7.205 2.543-13.054 7.714-17.463 5.17-4.408 12.037-6.612 20.762-6.612 2.882 0 5.849.254 9.071.678 3.221.424 6.527 1.017 9.918 1.78V27.72c0-6.527-1.356-11.104-4.07-13.731-2.797-2.628-7.544-3.9-14.241-3.9-3.052 0-6.188.382-9.41 1.102-3.222.762-6.358 1.695-9.41 2.881-.847.34-1.526.593-1.95.678-.423.17-.762.17-.932.17-.847 0-1.271-.593-1.271-1.865v-2.967c0-.932.17-1.695.424-2.119.339-.424.932-.847 1.78-1.271 3.306-1.695 7.205-3.137 11.697-4.154C37.563.678 42.31.17 47.312.17c8.815 0 15.258 2.035 19.328 6.018 3.985 4.07 6.018 10.173 6.018 18.396v30.854h-.254zm-34.41 14.411c2.798 0 5.68-.509 8.731-1.526 3.052-1.017 5.764-2.882 8.053-5.425 1.356-1.61 2.374-3.391 2.882-5.425.509-2.035.847-4.493.847-7.375v-3.56a71.595 71.595 0 0 0-7.968-1.441 64.974 64.974 0 0 0-8.138-.508c-5.764 0-10.003 1.186-12.715 3.475-2.713 2.288-4.07 5.509-4.07 9.664 0 3.9 1.017 6.867 3.052 8.815 1.95 2.035 4.832 3.052 8.477 3.052l.847.254zm64.918 10.088c-1.102 0-1.865-.17-2.374-.593-.508-.34-.932-1.187-1.356-2.289l-15.173-49.844c-.34-1.186-.509-1.95-.509-2.374 0-.932.424-1.44 1.356-1.44h5.595c1.102 0 1.865.17 2.289.593.508.34.847 1.187 1.271 2.289l10.849 42.72 10.088-42.72c.34-1.187.763-1.95 1.272-2.289.508-.34 1.356-.593 2.374-.593h4.577c1.102 0 1.865.17 2.374.593.508.34.932 1.187 1.271 2.289l10.173 43.228 11.189-43.228c.34-1.187.763-1.95 1.271-2.289.509-.34 1.272-.593 2.29-.593h5.34c.932 0 1.44.508 1.44 1.44 0 .34-.085.678-.17 1.102-.085.424-.254.932-.424 1.61l-15.597 49.844c-.34 1.187-.763 1.95-1.356 2.29-.508.338-1.356.592-2.374.592h-4.916c-1.102 0-1.865-.17-2.374-.593-.508-.424-.932-1.187-1.271-2.374l-9.918-41.364-9.918 41.279c-.34 1.187-.763 1.95-1.271 2.374-.509.424-1.356.593-2.374.593h-4.832zm83.737 2.543c-3.9 0-7.799-.424-11.528-1.356-3.73-.847-6.697-1.95-8.731-3.221-.932-.509-1.526-1.102-1.78-1.61-.255-.509-.34-1.017-.34-1.526v-3.052c0-1.271.509-1.865 1.356-1.865.34 0 .678.085 1.102.17.424.17.932.34 1.526.593 3.052 1.356 6.358 2.374 9.833 3.052 3.56.678 7.036.932 10.596.932 5.595 0 9.918-.932 12.885-2.882 2.967-1.865 4.493-4.577 4.493-8.053 0-2.374-.763-4.324-2.289-5.934-1.526-1.61-4.408-2.967-8.561-4.239l-12.292-3.815c-6.188-1.95-10.765-4.832-13.563-8.646-2.797-3.73-4.154-7.883-4.154-12.292 0-3.56.763-6.697 2.289-9.41 1.526-2.712 3.56-5.001 6.103-6.866 2.543-1.865 5.425-3.307 8.815-4.239 3.391-.932 6.951-1.441 10.68-1.441 1.865 0 3.815.085 5.68.339 1.95.255 3.73.509 5.51.932 1.695.424 3.306.847 4.832 1.356 1.526.509 2.797 1.017 3.73 1.526.847.424 1.526.932 1.95 1.356.424.424.593.932.593 1.61v2.798c0 1.271-.509 1.95-1.356 1.95-.509 0-1.271-.255-2.289-.763-3.391-1.526-7.12-2.712-11.189-3.56-4.07-.847-8.053-1.271-12.037-1.271-5.086 0-9.071.847-11.867 2.543-2.797 1.695-4.239 4.324-4.239 7.968 0 2.374.848 4.408 2.543 6.018 1.695 1.61 4.832 3.137 9.325 4.493l12.037 3.815c6.103 1.95 10.511 4.662 13.139 8.223 2.628 3.56 3.9 7.544 3.9 11.867 0 3.645-.763 6.951-2.289 9.748-1.526 2.797-3.645 5.255-6.273 7.205-2.628 1.95-5.764 3.476-9.41 4.493-3.815.932-7.799 1.441-12.122 1.441h-.085z"/>
    <path d="M188.706 141.982c-22.882 16.87-56.102 25.854-84.669 25.854-40.091 0-76.193-14.835-103.489-39.497-2.12-1.95-.17-4.577 2.374-3.052 29.324 17.039 65.596 27.296 103.066 27.296 25.261 0 53.05-5.255 78.566-16.107 3.815-1.695 7.036 2.543 4.154 5.509l-.002-.003z"/>
    <path d="M197.775 131.64c-2.967-3.73-19.498-1.78-26.872-.932-2.289.255-2.628-1.695-.593-3.137 13.139-9.241 34.664-6.612 37.207-3.476 2.543 3.221-678 25.346-3.815 37.122-5.595 1.78-3.221-2.374-5.764-4.832-2.543-2.543-4.154-19.498-4.154-24.745h-.001z"/>
  </g>
</svg> 