<?xml version="1.0" encoding="UTF-8"?>
<svg width="394" height="80" viewBox="0 0 394 80" fill="none" xmlns="http://www.w3.org/2000/svg">
  <path d="M261.919 0.0330722H330.547V12.7H303.323V79.339H289.71V12.7H261.919V0.0330722Z" fill="currentColor"/>
  <path d="M149.052 0.0330722V12.7H94.0421V33.0772H138.281V45.7441H94.0421V66.6721H149.052V79.339H80.4294V12.7H80.4295V0.0330722H149.052Z" fill="currentColor"/>
  <path d="M183.32 0.0330722H167.045L229.912 79.339H246.186L214.601 39.6861L246.186 0.0330722H229.912L206.766 29.7857L183.32 0.0330722Z" fill="currentColor"/>
  <path d="M201.191 56.7148L192.803 45.7442L167.045 79.339H183.32L201.191 56.7148Z" fill="currentColor"/>
  <path d="M80.907 79.339L17.0151 0H0V79.339H13.6126V16.9013L63.8566 79.339H80.907Z" fill="currentColor"/>
  <path d="M333.607 78.8546C332.61 78.8546 331.762 78.5093 331.052 77.8186C330.342 77.1279 329.991 76.2917 330 75.3099C329.991 74.3282 330.342 73.4919 331.052 72.8012C331.762 72.1105 332.61 71.7652 333.607 71.7652C334.566 71.7652 335.405 72.1105 336.124 72.8012C336.844 73.4919 337.204 74.3282 337.213 75.3099C337.204 75.9824 337.03 76.6003 336.693 77.1637C336.355 77.7271 335.908 78.1813 335.352 78.5265C334.795 78.8717 334.212 79.0443 333.607 79.0443V78.8546Z" fill="currentColor"/>
  <path d="M356.84 45.7441L362.872 45.7441C362.863 44.1655 362.401 42.7765 361.498 41.5771C360.594 40.3777 359.397 39.4223 357.906 38.7109C356.415 37.9995 354.731 37.6438 352.854 37.6438C350.977 37.6438 349.284 37.9995 347.775 38.7109C346.267 39.4223 345.061 40.3777 344.157 41.5771C343.254 42.7765 342.801 44.1655 342.801 45.7441C342.801 47.0796 343.139 48.2414 343.815 49.2294C344.491 50.2175 345.387 51.0024 346.501 51.5841C347.616 52.1658 348.798 52.6939 350.049 53.1683C351.299 53.6427 352.54 54.0927 353.77 54.5182C354.991 54.9437 356.073 55.4595 357.018 56.0657C357.962 56.672 358.707 57.4498 359.251 58.3992C359.795 59.3486 360.067 60.5245 360.067 61.9269C360.067 63.4409 359.652 64.7961 358.822 65.9927C357.991 67.1892 356.815 68.1416 355.294 68.8500C353.772 69.5583 351.983 69.9125 349.927 69.9125C347.787 69.9125 345.937 69.5335 344.376 68.7756C342.815 68.0177 341.611 66.9752 340.765 65.6482C339.919 64.3211 339.496 62.7879 339.496 61.0485H345.528C345.528 62.0533 345.781 62.9384 346.286 63.7039C346.791 64.4694 347.508 65.0759 348.438 65.5235C349.368 65.9711 350.46 66.1949 351.713 66.1949C353.055 66.1949 354.22 65.9298 355.209 65.3996C356.198 64.8694 356.959 64.1552 357.492 63.2569C358.025 62.3587 358.291 61.3397 358.291 60.1999C358.291 58.7672 357.944 57.5926 357.249 56.6761C356.554 55.7596 355.657 54.9867 354.559 54.3574C353.461 53.7282 352.279 53.1692 351.012 52.6805C349.744 52.1918 348.477 51.6569 347.21 51.0757C345.943 50.4945 344.77 49.7973 343.69 48.9842C342.611 48.1711 341.723 47.1728 341.028 45.9891C340.333 44.8054 339.985 43.3633 339.985 41.6626C339.985 40.0181 340.391 38.5496 341.204 37.2572C342.017 35.9648 343.184 34.9526 344.705 34.2207C346.226 33.4888 348.007 33.1229 350.049 33.1229C352.118 33.1229 353.932 33.4931 355.489 34.2336C357.047 34.9741 358.266 35.9863 359.147 37.2702C360.027 38.5541 360.477 40.0097 360.495 41.6368L356.84 45.7441Z" fill="currentColor"/>
  <path d="M387.691 54.5182C387.691 56.1627 387.295 57.6138 386.501 58.8714C385.708 60.1291 384.615 61.1206 383.224 61.8462C381.832 62.5717 380.218 62.9344 378.38 62.9344C376.814 62.9344 375.391 62.6854 374.11 62.1873C372.829 61.6892 371.736 60.9665 370.83 60.0191C369.924 59.0717 369.231 57.9179 368.75 56.5576C368.269 55.1972 368.028 53.6427 368.028 51.8941V37.9995H374.061V51.8941C374.061 52.9268 374.211 53.8372 374.512 54.6253C374.812 55.4134 375.232 56.0759 375.77 56.6127C376.308 57.1495 376.937 57.5576 377.657 57.8369C378.376 58.1163 379.158 58.2559 380.001 58.2559C380.911 58.2559 381.74 58.1034 382.487 57.7982C383.233 57.4931 383.881 57.0592 384.428 56.4966C384.976 55.934 385.403 55.2632 385.712 54.4841C386.021 53.705 386.176 52.8465 386.176 51.9084V37.9995H392.209V66.6722H387.691V54.5182Z" fill="currentColor"/>
</svg> 